<svg xmlns="http://www.w3.org/2000/svg" viewBox="0 0 32 32" width="32" height="32">
  <defs>
    <linearGradient id="g" x1="0" y1="0" x2="1" y2="1">
      <stop offset="0" stop-color="#818cf8" />
      <stop offset="1" stop-color="#4338ca" />
    </linearGradient>
  </defs>
  <rect width="32" height="32" rx="8" fill="url(#g)" />
  <path d="M11 21c1.2 1 2.8 1.5 4.6 1.5 2.7 0 4.4-1.2 4.4-3.1 0-1.8-1.4-2.6-4-3.2-2-.4-2.7-.8-2.7-1.6 0-.8.8-1.3 2.1-1.3 1.3 0 2.4.4 3.4 1.1l1.4-2.1c-1.2-.9-2.8-1.4-4.7-1.4-2.6 0-4.4 1.3-4.4 3.2 0 2 1.6 2.7 4.1 3.2 1.9.4 2.5.8 2.5 1.5 0 .8-.8 1.3-2.2 1.3-1.5 0-2.8-.5-3.9-1.4z" fill="#fff"/>
</svg>
